<?xml version="1.0" encoding="UTF-8"?>
<svg version="1.1" xmlns="http://www.w3.org/2000/svg" width="512" height="512">
<path d="M0 0 C1.48063206 1.16385477 2.96110012 2.3279182 4.44140625 3.4921875 C45.48937787 35.62611116 97.49344922 58.11339591 148.19921875 68.9375 C149.0056633 69.11062714 149.81210785 69.28375427 150.64299011 69.46212769 C154.62074435 70.31092377 158.60139326 71.13216325 162.59350586 71.91064453 C172.07031574 73.82471532 179.72520352 76.15888868 186.25 83.6875 C190.10502073 91.55174229 190.37317233 100.42885746 191.06640625 109.03515625 C191.17218491 110.29726425 191.27796356 111.55937225 191.38694763 112.85972595 C191.6092047 115.52974097 191.82903107 118.19981821 192.04467773 120.87036133 C192.26169221 123.55537256 192.48352738 126.23990082 192.71069336 128.92407227 C193.84176707 142.30114634 194.90412234 155.67194498 195.48046875 169.0859375 C195.5209584 170.01451065 195.56144806 170.9430838 195.60316467 171.89979553 C198.0851074 238.04945544 174.4770009 306.98132383 130 356.375 C128.60451976 357.87532849 127.2087182 359.37535823 125.8125 360.875 C124.6830773 362.18369615 123.55791241 363.49608164 122.4375 364.8125 C114.6268547 373.73895177 106.09362849 381.51326719 96.8125 388.875 C95.69075891 389.80755591 94.57106196 390.74257462 93.453125 391.6796875 C83.80245307 399.70105942 73.59869003 406.47619462 62.8125 412.875 C62.0277832 413.34292969 61.24306641 413.81085938 60.43457031 414.29296875 C47.70597803 421.80078774 34.49201014 427.73181817 20.79785156 433.24902344 C17.04865558 434.76779661 13.32639432 436.34707901 9.60372925 437.92956543 C6.19614649 439.37097616 2.77749578 440.78476964 -0.64361572 442.19372559 C-2.32605133 442.89230834 -4.0043647 443.60091132 -5.67816162 444.31994629 C-8.04530857 445.33368454 -10.42566728 446.3071327 -12.8125 447.2734375 C-13.50957062 447.58209747 -14.20664124 447.89075745 -14.92483521 448.20877075 C-21.02757144 450.60144711 -25.24000314 449.20773194 -31.1875 446.875 C-31.96438171 446.58577667 -32.74126343 446.29655334 -33.54168701 445.99856567 C-35.92525947 445.09220342 -38.28730682 444.14292381 -40.6484375 443.1796875 C-41.95441391 442.65207321 -41.95441391 442.65207321 -43.28677368 442.11380005 C-45.12127 441.37135216 -46.95486838 440.626682 -48.78759766 439.87988281 C-51.51867645 438.76784404 -54.25319265 437.66463355 -56.98828125 436.5625 C-90.00459387 423.20195877 -90.00459387 423.20195877 -103.875 415.0625 C-104.73891357 414.56097412 -105.60282715 414.05944824 -106.49291992 413.54272461 C-126.10371742 401.97673528 -143.77743456 387.60059973 -160.1875 371.875 C-161.00863281 371.09511719 -161.82976562 370.31523437 -162.67578125 369.51171875 C-167.47588936 364.84425612 -171.77214435 359.89832961 -175.94921875 354.66796875 C-177.38359581 352.87812652 -178.84267734 351.10764294 -180.33203125 349.36328125 C-229.3006618 291.74793756 -243.785873 217.2896846 -238.1875 143.875 C-238.11384216 142.90079102 -238.04018433 141.92658203 -237.96429443 140.92285156 C-237.39237973 133.38439231 -236.79567508 125.84811268 -236.1875 118.3125 C-236.10400299 117.26085663 -236.02050598 116.20921326 -235.93447876 115.1257019 C-235.69243258 112.10271344 -235.44137779 109.08060903 -235.1875 106.05859375 C-235.11665695 105.16301758 -235.0458139 104.26744141 -234.9728241 103.34472656 C-234.15418263 93.86119996 -233.15470642 85.80170452 -226.1875 78.875 C-219.10575539 74.08566233 -211.13419836 72.5161076 -202.87481689 70.9649353 C-144.99460784 60.00256037 -90.25957043 35.01988251 -43.38745117 -0.55834961 C-27.33442256 -12.70429189 -15.87368149 -12.3690794 0 0 Z " fill="#1C5E3F" transform="translate(278.1875,39.125)"/>
<path d="M0 0 C1.48063206 1.16385477 2.96110012 2.3279182 4.44140625 3.4921875 C45.48937787 35.62611116 97.49344922 58.11339591 148.19921875 68.9375 C149.0056633 69.11062714 149.81210785 69.28375427 150.64299011 69.46212769 C154.62074435 70.31092377 158.60139326 71.13216325 162.59350586 71.91064453 C172.07031574 73.82471532 179.72520352 76.15888868 186.25 83.6875 C190.10502073 91.55174229 190.37317233 100.42885746 191.06640625 109.03515625 C191.17218491 110.29726425 191.27796356 111.55937225 191.38694763 112.85972595 C191.6092047 115.52974097 191.82903107 118.19981821 192.04467773 120.87036133 C192.26169221 123.55537256 192.48352738 126.23990082 192.71069336 128.92407227 C193.84176707 142.30114634 194.90412234 155.67194498 195.48046875 169.0859375 C195.5209584 170.01451065 195.56144806 170.9430838 195.60316467 171.89979553 C198.0851074 238.04945544 174.4770009 306.98132383 130 356.375 C128.60451976 357.87532849 127.2087182 359.37535823 125.8125 360.875 C124.6830773 362.18369615 123.55791241 363.49608164 122.4375 364.8125 C114.6268547 373.73895177 106.09362849 381.51326719 96.8125 388.875 C95.69075891 389.80755591 94.57106196 390.74257462 93.453125 391.6796875 C83.80245307 399.70105942 73.59869003 406.47619462 62.8125 412.875 C62.0277832 413.34292969 61.24306641 413.81085938 60.43457031 414.29296875 C47.70597803 421.80078774 34.49201014 427.73181817 20.79785156 433.24902344 C17.04865558 434.76779661 13.32639432 436.34707901 9.60372925 437.92956543 C6.19614649 439.37097616 2.77749578 440.78476964 -0.64361572 442.19372559 C-2.32605133 442.89230834 -4.0043647 443.60091132 -5.67816162 444.31994629 C-8.04530857 445.33368454 -10.42566728 446.3071327 -12.8125 447.2734375 C-13.50957062 447.58209747 -14.20664124 447.89075745 -14.92483521 448.20877075 C-21.02757144 450.60144711 -25.24000314 449.20773194 -31.1875 446.875 C-31.96438171 446.58577667 -32.74126343 446.29655334 -33.54168701 445.99856567 C-35.92525947 445.09220342 -38.28730682 444.14292381 -40.6484375 443.1796875 C-41.95441391 442.65207321 -41.95441391 442.65207321 -43.28677368 442.11380005 C-45.12127 441.37135216 -46.95486838 440.626682 -48.78759766 439.87988281 C-51.51867645 438.76784404 -54.25319265 437.66463355 -56.98828125 436.5625 C-90.00459387 423.20195877 -90.00459387 423.20195877 -103.875 415.0625 C-104.73891357 414.56097412 -105.60282715 414.05944824 -106.49291992 413.54272461 C-126.10371742 401.97673528 -143.77743456 387.60059973 -160.1875 371.875 C-161.00863281 371.09511719 -161.82976562 370.31523437 -162.67578125 369.51171875 C-167.47588936 364.84425612 -171.77214435 359.89832961 -175.94921875 354.66796875 C-177.38359581 352.87812652 -178.84267734 351.10764294 -180.33203125 349.36328125 C-229.3006618 291.74793756 -243.785873 217.2896846 -238.1875 143.875 C-238.11384216 142.90079102 -238.04018433 141.92658203 -237.96429443 140.92285156 C-237.39237973 133.38439231 -236.79567508 125.84811268 -236.1875 118.3125 C-236.10400299 117.26085663 -236.02050598 116.20921326 -235.93447876 115.1257019 C-235.69243258 112.10271344 -235.44137779 109.08060903 -235.1875 106.05859375 C-235.11665695 105.16301758 -235.0458139 104.26744141 -234.9728241 103.34472656 C-234.15418263 93.86119996 -233.15470642 85.80170452 -226.1875 78.875 C-219.10575539 74.08566233 -211.13419836 72.5161076 -202.87481689 70.9649353 C-144.99460784 60.00256037 -90.25957043 35.01988251 -43.38745117 -0.55834961 C-27.33442256 -12.70429189 -15.87368149 -12.3690794 0 0 Z M-43.625 65.0625 C-51.99572843 71.43295047 -61.08394765 76.63151859 -70.1875 81.875 C-71.16759033 82.44565186 -71.16759033 82.44565186 -72.16748047 83.02783203 C-98.18228295 98.06002026 -128.30431824 108.31976714 -157.88183594 113.33154297 C-162.63406389 114.16375047 -166.11164431 114.78020783 -169.6875 118.25 C-170.63109375 119.12785156 -170.63109375 119.12785156 -171.59375 120.0234375 C-175.09928436 124.0960436 -175.60555152 128.0467635 -176.00390625 133.28125 C-176.06529282 134.00179565 -176.12667938 134.72234131 -176.18992615 135.46472168 C-176.384322 137.76758159 -176.56734498 140.07118215 -176.75 142.375 C-176.87620032 143.89329193 -177.00314641 145.41152206 -177.13085938 146.9296875 C-177.37953038 149.8969693 -177.6209792 152.86470848 -177.85717773 155.83300781 C-178.04888916 158.2258054 -178.25854952 160.61326958 -178.48852539 163.00292969 C-182.20192408 201.96163288 -177.74390693 240.49659625 -160.1875 275.875 C-159.85669434 276.55288574 -159.52588867 277.23077148 -159.18505859 277.92919922 C-147.93919315 300.77187234 -132.02959349 322.72832996 -112.1875 338.875 C-111.09894699 339.78774688 -110.01040648 340.70050868 -108.921875 341.61328125 C-90.07363416 357.23608724 -68.82721294 368.42927844 -46.14477539 377.44482422 C-43.45687976 378.51720351 -40.78041591 379.61534622 -38.10351562 380.71484375 C-36.37823033 381.40781101 -34.65234069 382.09927596 -32.92578125 382.7890625 C-32.13512772 383.11597076 -31.34447418 383.44287903 -30.52986145 383.7796936 C-22.94204159 386.7451616 -17.94355378 384.99392717 -10.54296875 381.99609375 C-9.81491531 381.70573746 -9.08686188 381.41538116 -8.33674622 381.1162262 C-6.79501574 380.49961009 -5.25448242 379.87999328 -3.71508789 379.25756836 C-1.42331594 378.33201288 0.87286022 377.4181939 3.16992188 376.50585938 C23.24085791 368.51158665 23.24085791 368.51158665 42.0625 358 C43.03533936 357.37847046 43.03533936 357.37847046 44.02783203 356.74438477 C53.50639836 350.59270941 62.23276837 343.62208257 70.5390625 335.9609375 C72.6514424 334.0227745 74.81248072 332.16476729 77 330.3125 C81.00753954 326.79991554 84.44000885 322.99544958 87.8125 318.875 C88.21871582 318.38112793 88.62493164 317.88725586 89.04345703 317.37841797 C130.4498448 266.76724637 138.48699124 209.07771664 133.0625 145.9375 C132.98417938 144.97430847 132.90585876 144.01111694 132.82516479 143.01873779 C132.5961919 140.27194569 132.34188423 137.52880296 132.078125 134.78515625 C132.01123978 133.97112839 131.94435455 133.15710052 131.8754425 132.31840515 C131.21484024 126.0026604 129.12074783 122.00569031 124.375 117.625 C119.96720914 114.61480136 115.65103356 113.55556205 110.4375 112.625 C65.97479673 104.11611633 27.06277161 84.93571393 -9.57861328 58.82250977 C-10.62637939 58.07698853 -10.62637939 58.07698853 -11.6953125 57.31640625 C-12.32066895 56.86982666 -12.94602539 56.42324707 -13.59033203 55.96313477 C-24.59482134 48.46588486 -35.09172399 58.48551652 -43.625 65.0625 Z " fill="#0DB460" transform="translate(278.1875,39.125)"/>
<path d="M0 0 C6.09300852 3.34875587 9.57769094 8.54557282 11.75 15.0625 C11.98828125 17.04296875 11.98828125 17.04296875 12.0625 19.25 C12.11857422 20.32314453 12.11857422 20.32314453 12.17578125 21.41796875 C10.90460622 29.31324855 5.79694104 34.59676187 0.33862305 39.99145508 C-0.40174194 40.73882935 -1.14210693 41.48620361 -1.90490723 42.25622559 C-4.3394435 44.70827595 -6.78821091 47.14550972 -9.23828125 49.58203125 C-10.94273903 51.28918551 -12.64660282 52.99693302 -14.34989929 54.70524597 C-17.91519538 58.276428 -21.48759731 61.84030344 -25.06518555 65.39916992 C-29.64521219 69.95639112 -34.20702326 74.53135831 -38.76366901 79.11194324 C-42.27634482 82.63908615 -45.79850828 86.15663041 -49.32359886 89.67136192 C-51.009406 91.35450524 -52.69225927 93.04061259 -54.37206459 94.72974586 C-56.72196705 97.08982991 -59.08435302 99.43667373 -61.45043945 101.78051758 C-62.13899521 102.47717026 -62.82755096 103.17382294 -63.53697205 103.8915863 C-68.68514521 108.95066183 -73.66040789 112.48747572 -81.1875 112.5 C-81.95964844 112.51933594 -82.73179687 112.53867187 -83.52734375 112.55859375 C-92.18353341 110.98135403 -97.68902915 105.21340905 -103.640625 99.203125 C-104.94117828 97.90831207 -104.94117828 97.90831207 -106.26800537 96.58734131 C-108.09146719 94.76659145 -109.90992761 92.94082049 -111.72363281 91.11035156 C-114.49114186 88.32142669 -117.27933539 85.55447941 -120.0703125 82.7890625 C-121.84503389 81.01169772 -123.61851396 79.23309242 -125.390625 77.453125 C-126.21983459 76.63201233 -127.04904419 75.81089966 -127.90338135 74.96490479 C-133.06412024 69.7201729 -137.3131778 64.80171818 -138.78125 57.375 C-138.68564962 50.30057195 -137.28973517 45.21844235 -132.30859375 40.046875 C-127.45130443 35.64579517 -124.21674099 33.91188294 -117.5625 33.75 C-116.07169922 33.69392578 -116.07169922 33.69392578 -114.55078125 33.63671875 C-104.65025609 34.91382791 -98.85181427 41.97078436 -92.25 48.8125 C-91.27568528 49.80691705 -90.30043153 50.80041495 -89.32421875 51.79296875 C-86.95677649 54.20729105 -84.59922297 56.6304682 -82.25 59.0625 C-78.34840885 57.48164218 -75.75700846 54.81279573 -72.87402344 51.85009766 C-72.34984329 51.31978439 -71.82566315 50.78947113 -71.28559875 50.24308777 C-70.15016837 49.09337537 -69.01699193 47.9414336 -67.88582611 46.78752518 C-66.09089866 44.95772722 -64.28889394 43.13518408 -62.48468018 41.31454468 C-57.35667409 36.13772283 -52.23985332 30.94995403 -47.13232422 25.75292969 C-44.0045884 22.57140245 -40.86699636 19.39987021 -37.72327423 16.2341423 C-36.53142864 15.02993723 -35.34338362 13.82195754 -34.15935516 12.61006546 C-24.22673565 2.44589381 -14.83604738 -6.41558806 0 0 Z " fill="#FDFEFD" transform="translate(319.25,200.9375)"/>
</svg>
